<svg width="39" height="39" viewBox="0 0 39 39" fill="none" xmlns="http://www.w3.org/2000/svg">
<g clip-path="url(#clip0_0_1602)">
<g clip-path="url(#clip1_0_1602)">
<g clip-path="url(#clip2_0_1602)">
<mask id="mask0_0_1602" style="mask-type:luminance" maskUnits="userSpaceOnUse" x="0" y="0" width="39" height="39">
<path d="M38.5 0.89502H0.5V38.895H38.5V0.89502Z" fill="white"/>
</mask>
<g mask="url(#mask0_0_1602)">
<path d="M19.5 3.15137L35.1987 10.3951H37.3125C37.6274 10.3951 37.9295 10.5202 38.1522 10.7429C38.3749 10.9656 38.5 11.2676 38.5 11.5826V16.3326C38.5 16.6475 38.3749 16.9496 38.1522 17.1723C37.9295 17.395 37.6274 17.5201 37.3125 17.5201H36.125V34.1451C36.3899 34.1452 36.6471 34.2338 36.8559 34.3969C37.0646 34.56 37.2128 34.7882 37.2769 35.0452L38.4644 39.7952C38.508 39.9702 38.5112 40.1529 38.4738 40.3293C38.4363 40.5058 38.3591 40.6713 38.2481 40.8135C38.137 40.9557 37.9951 41.0707 37.833 41.1498C37.6709 41.2289 37.4929 41.27 37.3125 41.2701H1.6875C1.50712 41.27 1.32913 41.2289 1.16702 41.1498C1.00491 41.0707 0.862962 40.9557 0.751935 40.8135C0.640908 40.6713 0.563726 40.5058 0.526246 40.3293C0.488766 40.1529 0.491973 39.9702 0.535625 39.7952L1.72312 35.0452C1.78723 34.7882 1.93542 34.56 2.14414 34.3969C2.35286 34.2338 2.61011 34.1452 2.875 34.1451V17.5201H1.6875C1.37256 17.5201 1.07051 17.395 0.847811 17.1723C0.625111 16.9496 0.5 16.6475 0.5 16.3326V11.5826C0.5 11.2676 0.625111 10.9656 0.847811 10.7429C1.07051 10.5202 1.37256 10.3951 1.6875 10.3951H3.80125L19.5 3.15137ZM9.468 10.3951H29.5296L19.5 5.76387L9.468 10.3951ZM5.25 17.5201V34.1451H7.625V17.5201H5.25ZM10 17.5201V34.1451H15.9375V17.5201H10ZM18.3125 17.5201V34.1451H20.6875V17.5201H18.3125ZM23.0625 17.5201V34.1451H29V17.5201H23.0625ZM31.375 17.5201V34.1451H33.75V17.5201H31.375ZM36.125 15.1451V12.7701H2.875V15.1451H36.125ZM35.1987 36.5201H3.80125L3.2075 38.8951H35.7925L35.1987 36.5201Z" fill="#1882F0"/>
</g>
</g>
</g>
</g>
<defs>
<clipPath id="clip0_0_1602">
<rect width="38" height="38" fill="white" transform="translate(0.5 0.89502)"/>
</clipPath>
<clipPath id="clip1_0_1602">
<rect width="38" height="38" fill="white" transform="translate(0.5 0.89502)"/>
</clipPath>
<clipPath id="clip2_0_1602">
<rect width="38" height="38" fill="white" transform="translate(0.5 0.89502)"/>
</clipPath>
</defs>
</svg>
