<svg width="17" height="16" viewBox="0 0 17 16" fill="none" xmlns="http://www.w3.org/2000/svg">
<path d="M5.05273 6H11.8789L9.47656 1.42969C9.30078 1.07812 9.44727 0.638672 9.76953 0.462891C10.1211 0.287109 10.5605 0.433594 10.7363 0.755859L13.4609 6H15.9805C16.4785 6 16.918 6.43945 16.918 6.9375C16.918 7.46484 16.4785 7.875 15.9805 7.875L14.457 13.9688C14.2227 14.7891 13.4902 15.375 12.6406 15.375H4.29102C3.44141 15.375 2.70898 14.7891 2.47461 13.9688L0.980469 7.875C0.453125 7.875 0.0429688 7.46484 0.0429688 6.9375C0.0429688 6.43945 0.453125 6 0.980469 6H3.4707L6.19531 0.755859C6.37109 0.433594 6.81055 0.287109 7.16211 0.462891C7.48438 0.638672 7.63086 1.07812 7.45508 1.42969L5.05273 6ZM5.63867 9.28125C5.63867 9.04688 5.43359 8.8125 5.16992 8.8125C4.93555 8.8125 4.70117 9.04688 4.70117 9.28125V12.0938C4.70117 12.3574 4.93555 12.5625 5.16992 12.5625C5.43359 12.5625 5.63867 12.3574 5.63867 12.0938V9.28125ZM7.98242 9.28125V12.0938C7.98242 12.3574 8.2168 12.5625 8.45117 12.5625C8.71484 12.5625 8.94922 12.3574 8.94922 12.0938V9.28125C8.94922 9.04688 8.71484 8.8125 8.45117 8.8125C8.2168 8.8125 7.98242 9.04688 7.98242 9.28125ZM12.2305 9.28125C12.2305 9.04688 11.9961 8.8125 11.7617 8.8125C11.498 8.8125 11.293 9.04688 11.293 9.28125V12.0938C11.293 12.3574 11.498 12.5625 11.7617 12.5625C11.9961 12.5625 12.2305 12.3574 12.2305 12.0938V9.28125Z" fill="white"/>
</svg>
