<svg width="19" height="26" viewBox="0 0 19 26" fill="none" xmlns="http://www.w3.org/2000/svg">
<path d="M12.5 0.125L18.75 6.375H12.5V0.125ZM10.9375 6.375C10.9375 7.25391 11.6211 7.9375 12.5 7.9375H18.75V22.7812C18.75 24.0996 17.6758 25.125 16.4062 25.125H2.34375C1.02539 25.125 0 24.0996 0 22.7812V2.46875C0 1.19922 1.02539 0.125 2.34375 0.125H10.9375V6.375ZM14.0625 16.9707C14.5508 16.5312 14.5508 15.7988 14.0625 15.3105L10.1562 11.4043C9.7168 10.9648 8.98438 10.9648 8.54492 11.4043L4.63867 15.3105C4.15039 15.7988 4.15039 16.5312 4.63867 16.9707C5.07812 17.459 5.81055 17.459 6.25 16.9707L8.20312 15.0664V20.0469C8.20312 20.7305 8.69141 21.2188 9.375 21.2188C10.0098 21.2188 10.5469 20.7305 10.5469 20.0469V15.0664L12.4512 16.9707C12.6465 17.2148 12.9395 17.3125 13.2812 17.3125C13.5742 17.3125 13.8672 17.2148 14.0625 16.9707Z" fill="#1882F0"/>
</svg>
