<svg width="233" height="58" viewBox="0 0 233 58" fill="none" xmlns="http://www.w3.org/2000/svg">
<g clip-path="url(#clip0_133_35)">
<path fill-rule="evenodd" clip-rule="evenodd" d="M3.80927 42.703V54.944H5.54927V42.703H8.91227V41.146H0.447266V42.703H3.80927Z" fill="black"/>
<path fill-rule="evenodd" clip-rule="evenodd" d="M11.5896 51.593V41.146H9.84961V54.944H11.5506L16.7896 44.418V54.944H18.5286V41.146H16.8086L11.5896 51.593Z" fill="black"/>
<path fill-rule="evenodd" clip-rule="evenodd" d="M22.615 42.703H27.541V54.944H29.281V41.146H20.875V54.944H22.615V42.703Z" fill="black"/>
<path fill-rule="evenodd" clip-rule="evenodd" d="M30.8457 48.0451C30.8457 55.2201 35.1467 55.3581 35.9677 55.3581C36.7887 55.3581 41.0897 55.2201 41.0897 48.0451C41.0897 44.1421 39.6037 40.7321 35.9677 40.7321C32.3317 40.7321 30.8457 44.1421 30.8457 48.0451ZM32.6637 48.0451C32.6637 45.6401 33.2887 42.2891 35.9667 42.2891C38.6447 42.2891 39.2707 45.6401 39.2707 48.0451C39.2707 50.2331 38.7627 53.8011 35.9667 53.8011C33.1707 53.8011 32.6637 50.2331 32.6637 48.0451Z" fill="black"/>
<path fill-rule="evenodd" clip-rule="evenodd" d="M44.3904 42.703H49.6104V41.146H42.6504V54.944H44.3904V42.703Z" fill="black"/>
<path fill-rule="evenodd" clip-rule="evenodd" d="M50.5488 41.146V54.944H52.2888V49.445H54.6348C58.4468 49.445 58.6418 46.429 58.6418 45.109C58.6418 41.462 56.1398 41.147 54.7518 41.147L50.5488 41.146ZM52.2888 42.703H54.4778C56.1198 42.703 56.8828 43.452 56.8828 45.147C56.8828 46.822 56.2958 47.887 54.4778 47.887H52.2888V42.703Z" fill="black"/>
<path fill-rule="evenodd" clip-rule="evenodd" d="M61.0079 51.376H65.1129L66.0899 54.944H67.9079L63.9789 41.146H62.1419L58.2129 54.944H60.0309L61.0079 51.376ZM61.3989 49.819L63.0609 43.63L64.7229 49.819H61.3989Z" fill="black"/>
<path fill-rule="evenodd" clip-rule="evenodd" d="M73.0698 55.4561H74.8288V53.3861H75.2388C76.7438 53.3861 80.2238 52.8151 80.2238 47.9061C80.2238 43.2931 77.1548 42.4461 75.2388 42.4461H74.8288V40.3571H73.0698V42.4461H72.6588C70.7438 42.4461 67.6738 43.2941 67.6738 47.9061C67.6738 52.8141 71.1538 53.3861 72.6588 53.3861H73.0698V55.4561ZM73.0698 51.9281H72.8348C71.7008 51.9281 69.4918 51.6721 69.4918 47.9071C69.4918 44.0041 71.9348 43.9061 72.8348 43.9061H73.0698V51.9281ZM74.8288 51.9281V43.9051H75.0638C75.9628 43.9051 78.4068 44.0031 78.4068 47.9061C78.4068 51.6711 76.1978 51.9271 75.0638 51.9271L74.8288 51.9281Z" fill="black"/>
<path fill-rule="evenodd" clip-rule="evenodd" d="M83.4685 51.593V41.146H81.7285V54.944H83.4295L88.6675 44.418V54.944H90.4075V41.146H88.6875L83.4685 51.593Z" fill="black"/>
<path fill-rule="evenodd" clip-rule="evenodd" d="M99.3809 49.464V54.944H101.121V41.146H96.7029C95.1189 41.146 92.7539 41.659 92.7539 45.266C92.7539 47.769 94.0829 49.031 95.6079 49.267L92.7729 54.944H94.8059L97.3479 49.464H99.3809ZM99.3809 42.703V47.907H97.0149C95.6469 47.907 94.5129 47.296 94.5129 45.285C94.5129 43.905 95.1969 42.703 96.8199 42.703H99.3809Z" fill="black"/>
<path fill-rule="evenodd" clip-rule="evenodd" d="M109.234 42.703H114.16V54.944H115.9V41.146H107.494V54.944H109.234V42.703Z" fill="black"/>
<path fill-rule="evenodd" clip-rule="evenodd" d="M117.463 48.0451C117.463 55.2201 121.763 55.3581 122.585 55.3581C123.407 55.3581 127.707 55.2201 127.707 48.0451C127.707 44.1421 126.221 40.7321 122.585 40.7321C118.949 40.7321 117.463 44.1421 117.463 48.0451ZM119.281 48.0451C119.281 45.6401 119.907 42.2891 122.585 42.2891C125.263 42.2891 125.889 45.6401 125.889 48.0451C125.889 50.2331 125.381 53.8011 122.585 53.8011C119.789 53.8011 119.281 50.2331 119.281 48.0451Z" fill="black"/>
<path fill-rule="evenodd" clip-rule="evenodd" d="M127.861 54.924C131.262 55.693 132.044 51.81 132.044 47.473V42.703H135.445V54.944H137.185V41.146H130.304V47.079C130.304 53.288 128.779 53.663 127.861 53.268V54.924Z" fill="black"/>
<path fill-rule="evenodd" clip-rule="evenodd" d="M141.273 48.459H146.16V54.944H147.9V41.146H146.16V46.902H141.273V41.146H139.533V54.944H141.273V48.459Z" fill="black"/>
<path fill-rule="evenodd" clip-rule="evenodd" d="M149.463 48.0451C149.463 55.2201 153.763 55.3581 154.585 55.3581C155.407 55.3581 159.707 55.2201 159.707 48.0451C159.707 44.1421 158.221 40.7321 154.585 40.7321C150.949 40.7321 149.463 44.1421 149.463 48.0451ZM151.281 48.0451C151.281 45.6401 151.907 42.2891 154.585 42.2891C157.263 42.2891 157.889 45.6401 157.889 48.0451C157.889 50.2331 157.381 53.8011 154.585 53.8011C151.789 53.8011 151.281 50.2331 151.281 48.0451Z" fill="black"/>
<path fill-rule="evenodd" clip-rule="evenodd" d="M163.01 42.703H168.229V41.146H161.27V54.944H163.01V42.703Z" fill="black"/>
<path fill-rule="evenodd" clip-rule="evenodd" d="M168.387 48.0451C168.387 55.2201 172.687 55.3581 173.509 55.3581C174.331 55.3581 178.631 55.2201 178.631 48.0451C178.631 44.1421 177.145 40.7321 173.509 40.7321C169.873 40.7321 168.387 44.1421 168.387 48.0451ZM170.205 48.0451C170.205 45.6401 170.83 42.2891 173.508 42.2891C176.186 42.2891 176.812 45.6401 176.812 48.0451C176.812 50.2331 176.304 53.8011 173.508 53.8011C170.712 53.8011 170.205 50.2331 170.205 48.0451Z" fill="black"/>
<path fill-rule="evenodd" clip-rule="evenodd" d="M186.488 53.387V41.146H184.748V54.944H192.958V58.058H194.503L194.62 53.387H193.154V41.146H191.414V53.387H186.488Z" fill="black"/>
<path fill-rule="evenodd" clip-rule="evenodd" d="M197.297 51.593V41.146H195.557V54.944H197.258L202.497 44.418V54.944H204.237V41.146H202.517L197.297 51.593Z" fill="black"/>
<path fill-rule="evenodd" clip-rule="evenodd" d="M208.322 47.02V41.146H206.582V54.944H208.322V48.203L212.897 54.944H214.989L209.71 47.533L214.656 41.146H212.701L208.322 47.02Z" fill="black"/>
<path fill-rule="evenodd" clip-rule="evenodd" d="M214.188 54.924C217.589 55.693 218.37 51.81 218.37 47.473V42.703H221.771V54.944H223.512V41.146H216.631V47.079C216.631 53.288 215.105 53.663 214.188 53.268V54.924Z" fill="black"/>
<path fill-rule="evenodd" clip-rule="evenodd" d="M226.913 51.376H231.018L231.996 54.944H233.814L229.885 41.146H228.048L224.119 54.944H225.937L226.913 51.376ZM227.305 49.819L228.967 43.63L230.629 49.819H227.305Z" fill="black"/>
<path fill-rule="evenodd" clip-rule="evenodd" d="M2.95703 34.35H8.41503V4.93099C12.246 4.93099 15.957 4.56699 19.145 6.53699C19.962 7.04199 20.718 7.91199 21.156 8.79499C22.473 11.447 21.936 20.703 21.936 24.861H27.394C27.477 20.945 27.85 12.236 27.048 8.83599L26.135 6.18999C25.063 4.06199 23.449 2.24199 21.307 1.05199L18.091 -0.224009C18 -0.265009 17.979 -0.279009 17.956 -0.284009C17.911 -0.293009 17.929 -0.291009 17.924 -0.291009C17.908 -0.291009 17.957 -0.291009 17.883 -0.290009H2.95703V34.35Z" fill="black"/>
<path fill-rule="evenodd" clip-rule="evenodd" d="M12.4922 9.193V34.343H26.7282C26.7422 34.336 31.5262 33.408 33.7792 30.718C34.9272 29.347 35.9912 27.291 36.4002 25.509L36.9302 23.193V-0.296997H31.4722C31.4722 3.238 31.6592 19.173 31.4412 21.262C30.6272 29.048 26.3482 29.122 17.9502 29.122V9.192H12.4922V9.193Z" fill="black"/>
<path fill-rule="evenodd" clip-rule="evenodd" d="M69.5233 29.793H64.9783V9.95203H55.5313V29.793H50.9863V6.26703H69.5233V29.793Z" fill="black"/>
<path fill-rule="evenodd" clip-rule="evenodd" d="M73.5674 17.821C73.5674 14.482 74.5634 11.646 76.5614 9.32601C78.5594 7.00101 81.2374 5.83801 84.5954 5.83801C88.2394 5.83801 91.0424 6.88001 92.9994 8.96401C94.9554 11.042 95.9334 13.998 95.9334 17.821C95.9334 21.644 94.9134 24.671 92.8734 26.881C90.8394 29.086 87.9524 30.188 84.2254 30.188C80.7534 30.188 78.1114 29.075 76.2924 26.854C74.4734 24.633 73.5664 21.622 73.5664 17.822L73.5674 17.821ZM78.2914 17.827C78.2914 20.689 78.8044 22.845 79.8304 24.293C80.8504 25.746 82.3174 26.47 84.2264 26.47C86.4984 26.47 88.2284 25.741 89.4214 24.287C90.6144 22.828 91.2104 20.679 91.2104 17.827C91.2104 12.316 89.0034 9.55701 84.5964 9.55701C82.5444 9.55701 80.9814 10.303 79.9084 11.789C78.8294 13.281 78.2914 15.293 78.2914 17.827Z" fill="black"/>
<path fill-rule="evenodd" clip-rule="evenodd" d="M118.486 29.793H113.941V9.95203H104.493V29.793H99.9492V6.26703H118.486V29.793Z" fill="black"/>
<path fill-rule="evenodd" clip-rule="evenodd" d="M128.292 9.95203V15.48H136.774V19.033H128.292V26.075H139.887V29.793H123.748V6.26703H140.102V9.95203H128.292Z" fill="black"/>
<path fill-rule="evenodd" clip-rule="evenodd" d="M161.757 29.793H157.212V20.443C155.697 20.756 154.194 20.909 152.703 20.909C149.935 20.909 147.77 20.268 146.226 18.99C144.675 17.707 143.9 15.891 143.9 13.534V6.26801H148.624V13.276C148.624 14.647 149.03 15.695 149.835 16.413C150.646 17.132 151.809 17.488 153.318 17.488C154.565 17.488 155.865 17.335 157.213 17.022V6.26801H161.758V29.794L161.757 29.793Z" fill="black"/>
<path fill-rule="evenodd" clip-rule="evenodd" d="M182.043 29.793L180.141 25.022H171.373L169.625 29.793H164.543L174.778 5.93799H176.746L187.052 29.793H182.043ZM175.744 13.143L172.66 21.829H178.809L175.743 13.143H175.744Z" fill="black"/>
<path fill-rule="evenodd" clip-rule="evenodd" d="M200.907 9.95203V29.793H196.362V9.95203H188.238V6.26703H209.424V9.95203H200.907Z" fill="black"/>
<path fill-rule="evenodd" clip-rule="evenodd" d="M232.931 29.793H228.386V13.966L215.002 30.155H213.07V6.26703H217.614V22.093L230.999 5.90503H232.931V29.793Z" fill="black"/>
</g>
<defs>
<clipPath id="clip0_133_35">
<rect width="233" height="58" fill="white"/>
</clipPath>
</defs>
</svg>
